<svg t="1562926141618" class="icon" viewBox="0 0 1024 1024" version="1.1" xmlns="http://www.w3.org/2000/svg" p-id="3470" width="42px" height="42px"><path d="M759.741935 141.419355H236.387097c-68.129032 0-123.870968 55.741935-123.870968 123.870968v523.354838c0 68.129032 55.741935 123.870968 123.870968 123.870968h523.354838c68.129032 0 123.870968-55.741935 123.870968-123.870968V265.290323c0-68.129032-55.741935-123.870968-123.870968-123.870968z m-375.741935 247.741935h40.258065v93.935484h-40.258065v-93.935484zM289.032258 286.967742h41.290323v55.741935h-41.290323v-55.741935z m94.967742 429.419355H289.032258V436.645161h-57.806452v-47.483871H330.322581v288h53.677419v39.225807z m334.451613-237.419355h-52.645161v-89.806452h52.645161v89.806452z m0-136.258065H566.709677v184.774194h152.774194v48.516129H566.709677v197.16129H526.451613V574.967742H384V526.451613H526.451613V342.709677H384v-55.741935h335.483871v55.741935z" fill="#29A1F7" p-id="3471"></path></svg>
