<svg t="1562925752464" class="icon" viewBox="0 0 1024 1024" version="1.1" xmlns="http://www.w3.org/2000/svg" p-id="2133"
     width="42px" height="42px">
  <path
    d="M512.268127 926.670031c-58.914735 0-117.17134-9.286932-173.380434-27.592668L28.860176 1023.780624l46.824661-319.143823C26.422661 631.925732 0.390002 548.684599 0.390002 463.249702 0.390002 207.822518 230.052654 0.024375 512.316877 0.024375c282.215473 0 511.756249 207.871269 511.756248 463.371578 0 255.402809-229.589526 463.274078-511.804998 463.274078z m-220.22947-514.291264a76.611093 76.611093 0 0 0-76.635467 76.562342 76.611093 76.611093 0 0 0 76.635467 76.562343 76.586717 76.586717 0 0 0 0-153.124685z m221.009474-0.073125a76.659843 76.659843 0 0 0-76.708593 76.635467 76.659843 76.659843 0 0 0 76.708593 76.611093 76.659843 76.659843 0 1 0 0-153.24656z m219.42509 0.073125a76.611093 76.611093 0 0 0-76.635468 76.562342 76.611093 76.611093 0 0 0 76.635468 76.562343 76.586717 76.586717 0 0 0 0-153.124685z"
    p-id="2134" fill="#29A1F7"></path>
</svg>
