<svg t="1563247384020" class="icon" viewBox="0 0 1024 1024" version="1.1" xmlns="http://www.w3.org/2000/svg" p-id="1984"
     width="200" height="200">
  <path
    d="M830.215139 383.49004 830.215139 318.215139c0-175.426295-142.788845-318.215139-318.215139-318.215139S193.784861 142.788845 193.784861 318.215139l0 65.2749c-36.717131 0-65.2749 28.557769-65.2749 65.2749l0 509.960159c0 36.717131 28.557769 65.2749 65.2749 65.2749l636.430279 0c36.717131 0 65.2749-28.557769 65.2749-65.2749L895.49004 444.685259C895.49004 412.047809 866.932271 383.49004 830.215139 383.49004zM577.2749 746.581673l0 146.868526-126.47012 0 0-146.868526c-36.717131-20.398406-65.2749-61.195219-65.2749-110.151394 0-69.354582 57.115538-126.47012 126.47012-126.47012s126.47012 57.115538 126.47012 126.47012C638.47012 685.386454 613.992032 726.183267 577.2749 746.581673zM703.74502 383.49004 320.25498 383.49004 320.25498 318.215139c0-106.071713 85.673307-191.74502 191.74502-191.74502s191.74502 85.673307 191.74502 191.74502L703.74502 383.49004z"
    p-id="1985" fill="#29A1F7"></path>
</svg>
