<svg t="1563248636559" class="icon" viewBox="0 0 1024 1024" version="1.1" xmlns="http://www.w3.org/2000/svg" p-id="2767"
     width="200" height="200">
  <path
    d="M744.96 0h-445.44C247.296 0 204.288 43.008 204.288 95.744v832c0 52.736 43.008 96.256 95.232 96.256h445.44c52.736 0 95.232-43.008 95.232-96.256V95.744c0-52.736-43.008-95.744-95.232-95.744zM434.176 48.64h175.616c8.704 0 15.872 7.168 15.872 15.872 0 8.704-7.168 15.872-15.872 15.872H434.176c-8.704 0-15.872-7.168-15.872-15.872 0.512-8.704 7.68-15.872 15.872-15.872z m88.064 911.36c-35.328 0-63.488-28.672-63.488-64s28.672-64 63.488-64c35.328 0 63.488 28.672 63.488 64s-28.16 64-63.488 64z m254.464-192H267.776V128h508.928v640z"
    fill="#29A1F7" p-id="2768"></path>
</svg>
